<?xml version="1.0" encoding="UTF-8" standalone="no"?><!-- Generator: Gravit.io --><svg xmlns="http://www.w3.org/2000/svg" xmlns:xlink="http://www.w3.org/1999/xlink" style="isolation:isolate" viewBox="0 0 15 15" width="15pt" height="15pt"><defs><clipPath id="_clipPath_9IeIbY04JuLPM4d3OqSeDkR962g9dtUK"><rect width="15" height="15"/></clipPath></defs><g clip-path="url(#_clipPath_9IeIbY04JuLPM4d3OqSeDkR962g9dtUK)"><g><path d=" M 13.095 3.879 C 13.083 3.843 13.07 3.787 13.054 3.722 C 12.951 3.316 12.854 2.932 12.471 2.79 L 10.654 2.119 C 10.302 1.99 9.907 2.036 9.596 2.247 L 9.483 2.344 C 9.392 2.445 9.269 2.572 9.18 2.653 L 5.832 2.653 C 5.757 2.577 5.658 2.466 5.575 2.366 L 5.445 2.248 C 5.134 2.037 4.738 1.988 4.388 2.119 L 2.568 2.79 C 2.187 2.931 2.092 3.31 1.99 3.713 C 1.974 3.774 1.961 3.83 1.966 3.83 C 1.966 3.83 1.967 3.83 1.968 3.83 C 1.348 5.015 -1.599 11.013 1.16 12.784 C 1.555 13.037 2.08 12.997 2.439 12.686 L 4.601 10.806 C 4.792 10.64 5.034 10.548 5.283 10.548 L 9.758 10.548 C 10.006 10.548 10.248 10.639 10.439 10.806 L 12.601 12.686 C 12.805 12.863 13.058 12.953 13.312 12.953 C 13.516 12.953 13.718 12.894 13.894 12.774 C 16.328 11.118 14.135 5.975 13.095 3.879 Z  M 9.997 4.47 C 10.342 4.47 10.621 4.742 10.621 5.076 C 10.621 5.411 10.342 5.682 9.997 5.682 C 9.652 5.682 9.372 5.411 9.372 5.076 C 9.372 4.742 9.652 4.47 9.997 4.47 Z  M 6.249 7.5 L 5.625 7.5 L 5.625 8.105 C 5.625 8.44 5.346 8.711 5 8.711 C 4.655 8.711 4.376 8.44 4.376 8.105 L 4.376 7.5 L 3.751 7.5 C 3.406 7.5 3.127 7.228 3.127 6.894 C 3.127 6.559 3.406 6.288 3.751 6.288 L 4.376 6.288 L 4.376 5.682 C 4.376 5.348 4.655 5.076 5 5.076 C 5.346 5.076 5.625 5.348 5.625 5.682 L 5.625 6.288 L 6.249 6.288 C 6.595 6.288 6.874 6.559 6.874 6.894 C 6.874 7.228 6.595 7.5 6.249 7.5 Z  M 8.748 6.894 C 8.403 6.894 8.123 6.622 8.123 6.288 C 8.123 5.954 8.403 5.682 8.748 5.682 C 9.092 5.682 9.372 5.954 9.372 6.288 C 9.372 6.622 9.092 6.894 8.748 6.894 Z  M 9.997 8.105 C 9.652 8.105 9.372 7.834 9.372 7.5 C 9.372 7.165 9.652 6.894 9.997 6.894 C 10.342 6.894 10.621 7.165 10.621 7.5 C 10.621 7.834 10.342 8.105 9.997 8.105 Z  M 11.246 6.894 C 10.901 6.894 10.621 6.622 10.621 6.288 C 10.621 5.954 10.901 5.682 11.246 5.682 C 11.591 5.682 11.87 5.954 11.87 6.288 C 11.87 6.622 11.591 6.894 11.246 6.894 Z " fill="rgb(51,195,249)"/></g></g></svg>